<?xml version="1.0" encoding="UTF-8"?>
<svg width="2203px" height="800px" viewBox="0 0 2203 800" version="1.1" xmlns="http://www.w3.org/2000/svg">
    <title>bunny-label</title>
    <g id="bunny-label" stroke="none" stroke-width="1" fill="none" fill-rule="evenodd">
        <g id="Group" transform="translate(1403.000000, 0.000000)" fill="#EC6998" fill-rule="nonzero">
            <g id="Combined-Shape">
                <path d="M289.679376,539.592068 C306.002442,539.592068 319.685011,544.988669 330.727085,555.78187 C341.769159,566.575071 347.290195,580.366383 347.290195,597.155807 C347.290195,613.945231 341.769159,627.616619 330.727085,638.169972 C319.685011,648.723324 306.002442,654 289.679376,654 C273.836401,654 260.273854,648.723324 248.991736,638.169972 C237.709617,627.616619 232.068557,613.945231 232.068557,597.155807 C232.068557,580.366383 237.709617,566.575071 248.991736,555.78187 C260.273854,544.988669 273.836401,539.592068 289.679376,539.592068 Z M510.040759,539.592068 C526.363824,539.592068 540.046394,544.988669 551.088467,555.78187 C562.130541,566.575071 567.651578,580.366383 567.651578,597.155807 C567.651578,613.945231 562.130541,627.616619 551.088467,638.169972 C540.046394,648.723324 526.363824,654 510.040759,654 C494.197784,654 480.635237,648.723324 469.353118,638.169972 C458.070999,627.616619 452.42994,613.945231 452.42994,597.155807 C452.42994,580.366383 458.070999,566.575071 469.353118,555.78187 C480.635237,544.988669 494.197784,539.592068 510.040759,539.592068 Z M336.488167,146 L336.488167,279.835694 L336.486569,282.128983 C336.46916,294.600728 336.309509,306.740845 336.007616,318.549334 C356.724668,316.005084 377.888985,314.733711 399.5,314.733711 C421.617197,314.733711 443.266525,316.065338 464.447985,318.728593 C464.116954,306.108025 463.952104,293.143438 463.952104,279.835694 L463.952104,279.835694 L463.952104,146 L556.849549,146 L556.849549,279.835694 L556.847951,282.128983 C556.820126,302.063071 556.428916,321.149954 555.674321,339.389631 C561.63908,341.382934 567.562124,343.498073 573.442665,345.734183 C627.792872,366.401165 676.311983,394.543437 719,430.161001 L719,430.161001 L682.033058,486.225685 L680.648945,485.204036 C641.845168,456.672008 598.958398,434.366822 551.988636,418.28848 C551.289388,418.049118 550.589425,417.811517 549.888748,417.575677 C547.536504,441.335808 544.815627,465.218512 541.726709,489.223796 L541.726709,489.223796 L479.795079,489.223796 L479.146362,484.645606 C475.10763,455.883812 471.77381,427.21006 469.144902,398.62435 C446.57156,395.463934 423.356328,393.883853 399.5,393.883853 C376.146942,393.883853 353.428695,395.397971 331.34526,398.426207 C328.612373,428.495317 325.285194,458.760856 321.365327,489.223796 L321.365327,489.223796 L259.433696,489.223796 L258.78498,484.645606 C255.619779,462.104659 252.887538,439.617788 250.588257,417.184993 C249.505018,417.549269 248.422331,417.916751 247.341426,418.28848 C200.032541,434.558231 156.57438,457.203966 116.966942,486.225685 L116.966942,486.225685 L80,430.161001 L81.3358987,429.050385 C123.699464,393.957951 171.773276,366.185884 225.557335,345.734183 C231.910336,343.318418 238.312944,341.043842 244.765159,338.910455 C243.982184,320.035059 243.590721,300.342817 243.590721,279.835694 L243.590721,279.835694 L243.590721,146 L336.488167,146 Z"></path>
            </g>
        </g>
        <path d="M196.29778,522.952596 C244.461565,522.952596 280.737792,514.510158 305.12646,497.625282 C329.515129,480.740406 341.709463,455.566591 341.709463,422.103837 C341.709463,405.525959 338.028154,390.636569 330.665537,377.435666 C323.302921,364.234763 309.498014,353.79684 289.250818,346.121896 C313.792874,331.386005 326.063902,311.277652 326.063902,285.79684 C326.063902,268.911964 322.612675,254.713318 315.710222,243.200903 C308.807769,231.688488 299.221028,222.401806 286.95,215.340858 C274.678972,208.27991 260.030432,203.291196 243.004381,200.374718 C225.978329,197.458239 207.341706,196 187.094509,196 C172.0625,196 155.803388,196.690745 138.317173,198.072235 C120.830958,199.453725 104.725234,201.525959 90,204.288939 L90,204.288939 L90,513.742664 C108.713318,517.733634 126.73639,520.266366 144.069217,521.340858 C161.402044,522.41535 178.811565,522.952596 196.29778,522.952596 Z M194.91729,324.939052 L159.94486,324.939052 L159.94486,255.404063 C165.466822,254.790068 171.755724,254.406321 178.811565,254.252822 C185.867407,254.099323 192.463084,254.022573 198.598598,254.022573 C217.618692,254.022573 232.03715,256.632054 241.853972,261.851016 C251.670794,267.069977 256.579206,276.126411 256.579206,289.020316 C256.579206,301.607223 251.824182,310.740406 242.314136,316.419865 C232.804089,322.099323 217.00514,324.939052 194.91729,324.939052 L194.91729,324.939052 Z M197.218107,464.009029 C189.855491,464.009029 183.106425,463.85553 176.970911,463.548533 C170.835397,463.241535 165.160047,462.781038 159.94486,462.167043 L159.94486,462.167043 L159.94486,379.738149 L205.040888,379.738149 C225.59486,379.738149 241.393808,382.884876 252.437734,389.17833 C263.481659,395.471783 269.003621,405.986456 269.003621,420.722348 C269.003621,437.300226 262.407944,448.659142 249.216589,454.799097 C236.025234,460.939052 218.692407,464.009029 197.218107,464.009029 Z M495.097313,524.334086 C515.344509,524.334086 534.671379,522.875847 553.077921,519.959368 C571.484463,517.042889 586.516472,513.896163 598.173949,510.519187 L598.173949,510.519187 L598.173949,276.586907 L529.609579,276.586907 L529.609579,463.548533 C525.31472,464.162528 520.406308,464.699774 514.884346,465.160271 C509.362383,465.620767 504.147196,465.851016 499.238785,465.851016 C483.286449,465.851016 472.395911,460.939052 466.567173,451.115124 C460.738435,441.291196 457.824065,425.327314 457.824065,403.223476 L457.824065,403.223476 L457.824065,276.586907 L389.259696,276.586907 L389.259696,411.512415 C389.259696,428.090293 390.946963,443.286682 394.321495,457.10158 C397.696028,470.916479 403.371379,482.812641 411.347547,492.790068 C419.323715,502.767494 430.137558,510.519187 443.789077,516.045147 C457.440596,521.571106 474.543341,524.334086 495.097313,524.334086 Z M728.093458,518.808126 L728.093458,331.846501 C732.388318,331.232506 737.296729,330.69526 742.818692,330.234763 C748.340654,329.774266 753.555841,329.544018 758.464252,329.544018 C774.416589,329.544018 785.307126,334.148984 791.135864,343.358916 C796.964603,352.568849 799.878972,368.225734 799.878972,390.329571 L799.878972,390.329571 L799.878972,518.808126 L868.443341,518.808126 L868.443341,382.040632 C868.443341,365.462754 866.756075,350.419865 863.381542,336.911964 C860.007009,323.404063 854.331659,311.738149 846.355491,301.914221 C838.379322,292.090293 827.565479,284.492099 813.91396,279.119639 C800.262442,273.747178 783.159696,271.060948 762.605724,271.060948 C742.358528,271.060948 723.031659,272.519187 704.625117,275.435666 C686.218575,278.352144 671.186565,281.498871 659.529089,284.875847 L659.529089,284.875847 L659.529089,518.808126 L728.093458,518.808126 Z M996.062033,518.808126 L996.062033,331.846501 C1000.35689,331.232506 1005.2653,330.69526 1010.78727,330.234763 C1016.30923,329.774266 1021.52442,329.544018 1026.43283,329.544018 C1042.38516,329.544018 1053.2757,334.148984 1059.10444,343.358916 C1064.93318,352.568849 1067.84755,368.225734 1067.84755,390.329571 L1067.84755,390.329571 L1067.84755,518.808126 L1136.41192,518.808126 L1136.41192,382.040632 C1136.41192,365.462754 1134.72465,350.419865 1131.35012,336.911964 C1127.97558,323.404063 1122.30023,311.738149 1114.32407,301.914221 C1106.3479,292.090293 1095.53405,284.492099 1081.88254,279.119639 C1068.23102,273.747178 1051.12827,271.060948 1030.5743,271.060948 C1010.3271,271.060948 991.000234,272.519187 972.593692,275.435666 C954.18715,278.352144 939.15514,281.498871 927.497664,284.875847 L927.497664,284.875847 L927.497664,518.808126 L996.062033,518.808126 Z M1210.19147,604 C1223.07605,604 1234.35006,602.541761 1244.01349,599.625282 C1253.67693,596.708804 1262.34334,592.103837 1270.01273,585.810384 C1277.68213,579.51693 1284.73797,571.534989 1291.18026,561.86456 C1297.62255,552.194131 1304.06484,540.451467 1310.50713,526.636569 C1328.30012,488.261851 1344.71262,448.659142 1359.74463,407.828442 C1374.77664,366.997743 1389.19509,323.250564 1403,276.586907 L1403,276.586907 L1332.13481,276.586907 C1329.06706,288.559819 1325.61583,301.530474 1321.78113,315.498871 C1317.94644,329.467269 1313.95835,343.589165 1309.81688,357.86456 C1305.67541,372.139955 1301.45724,386.031603 1297.16238,399.539503 C1292.86752,413.047404 1288.72605,425.327314 1284.73797,436.379233 C1280.44311,425.327314 1275.91817,413.047404 1271.16314,399.539503 C1266.40812,386.031603 1261.72979,372.139955 1257.12815,357.86456 C1252.52652,343.589165 1248.15496,329.467269 1244.01349,315.498871 C1239.87202,301.530474 1236.26741,288.559819 1233.19965,276.586907 L1233.19965,276.586907 L1160.49381,276.586907 C1174.29871,324.171558 1189.02395,367.074492 1204.66951,405.295711 C1220.31507,443.51693 1235.96063,477.977427 1251.60619,508.677201 C1247.00456,520.343115 1241.4059,529.476298 1234.81022,536.076749 C1228.21454,542.677201 1218.78119,545.977427 1206.51016,545.977427 C1200.37465,545.977427 1194.54591,545.51693 1189.02395,544.595937 C1183.50199,543.674944 1177.21308,541.986456 1170.15724,539.530474 L1170.15724,539.530474 L1158.19299,594.329571 C1164.02173,596.785553 1171.46104,599.011287 1180.51092,601.006772 C1189.56081,603.002257 1199.45432,604 1210.19147,604 Z"
              id="Bunny" fill="#EC6998" fill-rule="nonzero"></path>
    </g>
</svg>
