<?xml version="1.0" encoding="UTF-8"?>
<svg width="800px" height="800px" viewBox="0 0 800 800" version="1.1" xmlns="http://www.w3.org/2000/svg" xmlns:xlink="http://www.w3.org/1999/xlink">
    <title>token-bunny</title>
    <g id="token-bunny" stroke="none" stroke-width="1" fill="none" fill-rule="evenodd">
        <g id="bunny-token" transform="translate(80.000000, 80.000000)">
            <circle id="Oval" fill="#FACFD8" cx="320" cy="320" r="320"></circle>
            <g id="RocketBunnySymbol" transform="translate(102.400000, 147.200000)" fill="#EC6998" fill-rule="nonzero">
                <path d="M142.581976,267.722606 C153.68166,267.722606 162.985808,271.392295 170.494418,278.731671 C178.003028,286.071048 181.757333,295.449141 181.757333,306.865949 C181.757333,318.282757 178.003028,327.579301 170.494418,334.755581 C162.985808,341.93186 153.68166,345.52 142.581976,345.52 C131.808753,345.52 122.586221,341.93186 114.91438,334.755581 C107.242539,327.579301 103.406619,318.282757 103.406619,306.865949 C103.406619,295.449141 107.242539,286.071048 114.91438,278.731671 C122.586221,271.392295 131.808753,267.722606 142.581976,267.722606 Z M292.427716,267.722606 C303.5274,267.722606 312.831548,271.392295 320.340158,278.731671 C327.848768,286.071048 331.603073,295.449141 331.603073,306.865949 C331.603073,318.282757 327.848768,327.579301 320.340158,334.755581 C312.831548,341.93186 303.5274,345.52 292.427716,345.52 C281.654493,345.52 272.431961,341.93186 264.76012,334.755581 C257.088279,327.579301 253.252359,318.282757 253.252359,306.865949 C253.252359,295.449141 257.088279,286.071048 264.76012,278.731671 C272.431961,271.392295 281.654493,267.722606 292.427716,267.722606 Z M174.411953,0.08 L174.411953,91.088272 L174.410117,93.1145516 C174.395011,101.431437 174.2867,109.531024 174.085185,117.413312 C188.172334,115.683483 202.564285,114.818924 217.26,114.818924 C232.299765,114.818924 247.021377,115.724439 261.424835,117.535469 C261.199534,108.953848 261.087431,100.137739 261.087431,91.088272 L261.087431,91.088272 L261.087431,0.08 L324.257693,0.08 L324.257693,91.088272 L324.255857,93.1145516 C324.231542,106.501161 323.965762,119.324812 323.458516,131.585503 C327.514852,132.940494 331.542382,134.378742 335.541012,135.899245 C372.499153,149.952792 405.492149,169.089537 434.52,193.309481 L434.52,193.309481 L409.382479,231.433466 L408.112054,230.496992 C381.812192,211.210929 352.758932,196.123987 320.952273,185.236166 C320.476651,185.073355 320.000543,184.911742 319.52395,184.751326 C317.924863,200.907994 316.074649,217.14841 313.974162,233.472181 L313.974162,233.472181 L271.860654,233.472181 L271.291323,229.443566 C268.602603,210.192851 266.378368,191.000149 264.618616,171.865459 C249.269743,169.715549 233.48286,168.64102 217.26,168.64102 C201.379585,168.64102 185.93086,169.670664 170.913825,171.729951 C169.056393,192.177007 166.793919,212.757478 164.128422,233.472181 L164.128422,233.472181 L122.014914,233.472181 L121.445583,229.443566 C119.34766,214.422843 117.532524,199.437439 116.000174,184.487355 L115.212941,184.751663 L115.212941,184.751663 L113.792169,185.236166 C81.6221281,196.299597 52.0705785,211.698697 25.1375207,231.433466 L25.1375207,231.433466 L-2.66930627e-12,193.309481 L1.21178845,192.303258 C29.9450882,168.558942 62.5341546,149.757604 98.9789876,135.899245 C103.299111,134.256492 107.652969,132.709753 112.040561,131.259026 C111.507886,118.423912 111.24169,105.033153 111.24169,91.088272 L111.24169,91.088272 L111.24169,0.08 L174.411953,0.08 Z" id="Combined-Shape"></path>
            </g>
        </g>
    </g>
</svg>